# AST/ASF file generated using VICON BodyLanguage
# -----------------------------------------------
:version 1.10
:name VICON
:units
  mass 1.0
  length 0.45
  angle deg
:documentation
   .ast/.asf automatically generated from VICON data using
   VICON BodyBuilder and BodyLanguage model FoxedUp or BRILLIANT.MOD
:root
   order TX TY TZ RX RY RZ
   axis XYZ
   position 0 0 0  
   orientation 0 0 0 
:bonedata
  begin
     id 1 
     name lhipjoint
     direction 0.716248 -0.617586 0.324924 
     length 2.63557 
     axis 0 0 0  XYZ
  end
  begin
     id 2 
     name lfemur
     direction 0.34202 -0.939693 0  
     length 7.01235  
     axis 0 0 20  XYZ
    dof rx ry rz
    limits (-160.0 20.0)
           (-70.0 70.0)
           (-60.0 70.0)
  end
  begin
     id 3 
     name ltibia
     direction 0.34202 -0.939693 0   
     length 8.14348   
     axis 0 0 20   XYZ
    dof rx
    limits (-10.0 170.0)
  end
  begin
     id 4 
     name lfoot
     direction 0.0982064 -0.26982 0.95789   
     length 1.99077   
     axis -90 7.62852e-016 20   XYZ
    dof rx rz
    limits (-45.0 90.0)
           (-70.0 20.0)
  end
  begin
     id 5 
     name ltoes
     direction 1.53511e-011 -4.21891e-011 1   
     length 0.99735   
     axis -90 7.62852e-016 20   XYZ
    dof rx
    limits (-90.0 20.0)
  end
  begin
     id 6 
     name rhipjoint
     direction -0.687828 -0.642391 0.337975   
     length 2.5338  
     axis 0 0 0  XYZ 
  end
  begin
     id 7 
     name rfemur
     direction -0.34202 -0.939693 0   
     length 6.90199   
     axis 0 0 -20   XYZ
    dof rx ry rz
    limits (-160.0 20.0)
           (-70.0 70.0)
           (-70.0 60.0)
  end
  begin
     id 8 
     name rtibia
     direction -0.34202 -0.939693 0   
     length 8.07725   
     axis 0 0 -20   XYZ
    dof rx
    limits (-10.0 170.0)
 end
 begin
     id 9 
     name rfoot
     direction -0.0912384 -0.250675 0.963762   
     length 2.11621  
     axis -90 -7.62852e-016 -20   XYZ
    dof rx rz
    limits (-45.0 90.0)
           (-20.0 70.0)
  end
  begin
     id 10 
     name rtoes
     direction -1.5359e-011 -4.21894e-011 1   
     length 1.06031   
     axis -90 -7.62852e-016 -20   XYZ
    dof rx
    limits (-90.0 20.0)
  end
  begin
     id 11 
     name lowerback
     direction -0.0403572 0.987953 -0.149396   
     length 2.05637   
     axis 0 0 0   XYZ
    dof rx ry rz
    limits (-20.0 45.0)
           (-30.0 30.0)
           (-30.0 30.0)
  end
  begin
     id 12 
     name upperback
     direction -0.00512151 0.997598 0.0690792   
     length 2.01086   
     axis 0 0 0   XYZ
    dof rx ry rz
    limits (-20.0 45.0)
           (-30.0 30.0)
           (-30.0 30.0)
  end
  begin
     id 13 
     name thorax
     direction 0.0136133 0.989392 0.14463   
     length 2.09035   
     axis 0 0 0   XYZ
    dof rx ry rz
    limits (-20.0 45.0)
           (-30.0 30.0)
           (-30.0 30.0)
  end
  begin
     id 14 
     name lowerneck
     direction 0.0250714 0.992811 0.11704   
     length 1.70806   
     axis 0 0 0   XYZ
    dof rx ry rz
    limits (-20.0 45.0)
           (-30.0 30.0)
           (-30.0 30.0)
  end
  begin
     id 15 
     name upperneck
     direction -0.0519205 0.998394 -0.0226787   
     length 1.6689   
     axis 0 0 0   XYZ
    dof rx ry rz
    limits (-20.0 45.0)
           (-30.0 30.0)
           (-30.0 30.0)
  end
  begin
     id 16
     name head
     direction -0.0201693 0.999547 -0.0223192  
     length 1.83412  
     axis 0 0 0   XYZ
    dof rx ry rz
    limits (-20.0 45.0)
           (-30.0 30.0)
           (-30.0 30.0)
  end
  begin
     id 17 
     name lclavicle
     direction 0.89585 0.444077 -0.0157448  
     length 3.39587  
     axis 0 0 0   XYZ
    dof ry rz
    limits (-20.0 10.0)
           (0.0 20.0)
  end
  begin
     id 18 
     name lhumerus
     direction 1 -4.48956e-011 1.99132e-028   
     length 5.79199   
     axis 180 -30 -90   XYZ
    dof rx ry rz
    limits (-60.0 90.0)
           (-90.0 90.0)
           (-90.0 90.0)
  end
  begin
     id 19
     name lradius
     direction 1 -4.48974e-011 8.72912e-028   
     length 3.49908   
     axis 180 -30 -90   XYZ
    dof rx
    limits (-10.0 170.0)
  end
  begin
     id 20
     name lwrist
     direction 1 -4.48994e-011 4.76442e-027   
     length 1.74954   
     axis -3.27502e-015 90 90   XYZ
    dof ry
    limits (-180.0 0.0)
 end
  begin
     id 21 
     name lhand
     direction 1 -4.48945e-011 9.531e-027   
     length 0.593861   
     axis -6.08098e-015 90 90   XYZ
    dof rx rz
    limits (-90.0 90.0)
           (-45.0 45.0)
  end
  begin
     id 22 
     name lfingers
     direction 1 -4.48945e-011 1.9062e-026   
     length 0.478786   
     axis -1.21619e-014 90 90   XYZ
    dof rx
    limits (0.0 90.0)
  end
  begin
     id 23
     name lthumb
     direction 0.707107 -6.34904e-011 0.707107   
     length 0.687444   
     axis -90 45 -9.86923e-015   XYZ
    dof rx rz
    limits (-45.0 45.0)
           (-45.0 45.0)
  end
  begin
     id 24 
     name rclavicle
     direction -0.940466 0.338394 0.0318182   
     length 3.51226  
     axis 0 0 0   XYZ 
    dof ry rz
    limits (-10.0 20.0)
           (-20.0 0.0)
  end
  begin
     id 25 
     name rhumerus
     direction -1 -4.48976e-011 2.0905e-027  
     length 5.73799   
     axis 180 30 90   XYZ
    dof rx ry rz
    limits (-90.0 60.0)
           (-90.0 90.0)
           (-90.0 90.0)
  end
  begin
     id 26 
     name rradius
     direction -1 -4.48968e-011 -9.39692e-029   
     length 3.57916   
     axis 180 30 90   XYZ
    dof rx
    limits (-10.0 170.0)
  end
  begin
     id 27 
     name rwrist
     direction -1 -4.48959e-011 4.7652e-027   
     length 1.78958   
     axis -3.27502e-015 -90 -90   XYZ
    dof ry
    limits (-180.0 0.0)
  end
  begin
     id 28
     name rhand
     direction -1 -4.49042e-011 9.5267e-027   
     length 0.615577   
     axis -6.08098e-015 -90 -90   XYZ
    dof rx rz
    limits (-90.0 90.0)
           (-45.0 45.0)
  end
  begin
     id 29
     name rfingers
     direction -1 -4.48935e-011 1.90629e-026   
     length 0.496294   
     axis -1.21619e-014 -90 -90   XYZ
    dof rx
    limits (0.0 90.0)
  end
  begin
     id 30
     name rthumb
     direction -0.707107 -6.34977e-011 0.707107   
     length 0.712582   
     axis -90 -45 9.86923e-015   XYZ
    dof rx rz
    limits (-45.0 45.0)
           (-45.0 45.0)
  end
:hierarchy
  begin
    root lhipjoint rhipjoint lowerback
    lhipjoint lfemur
    lfemur ltibia
    ltibia lfoot
    lfoot ltoes
    rhipjoint rfemur
    rfemur rtibia
    rtibia rfoot
    rfoot rtoes
    lowerback upperback
    upperback thorax
    thorax lowerneck lclavicle rclavicle
    lowerneck upperneck
    upperneck head
    lclavicle lhumerus
    lhumerus lradius
    lradius lwrist
    lwrist lhand lthumb
    lhand lfingers
    rclavicle rhumerus
    rhumerus rradius
    rradius rwrist
    rwrist rhand rthumb
    rhand rfingers
  end

#!OML:ASF H:\Terrain\Patient Classification 1\PaulMetrics\March17Take5\PaulMetrics.ASF
:FULLY-SPECIFIED
:DEGREES
3001
root 2.48775 16.3623 -22.0745 -178.38 -51.4234 -173.943
lowerback 5.33537 0.0192451 -5.16721
upperback -2.63692 -0.300907 1.65483
thorax -5.72261 0.0762118 4.67246
lowerneck -3.06474 11.0982 6.5857
upperneck 3.9579 15.1539 -13.7341
head 3.25086 7.20192 -4.4555
rclavicle 1.10748e-013 8.74653e-015
rhumerus -53.4313 13.5008 -90.9694
rradius 34.1697
rwrist -20.5032
rhand -25.9335 -42.1363
rfingers 7.12502
rthumb 0.609968 287.885
lclavicle 1.10748e-013 8.74653e-015
lhumerus -51.1334 -22.9747 88.7608
lradius 73.5253
lwrist 34.4812
lhand -14.1914 -22.6996
lfingers 7.12502
lthumb 11.9445 6.93966
rfemur -46.1647 0.386113 7.99778
rtibia 63.1195
rfoot 3.10871 -7.22033
rtoes -13.2391
lfemur -14.2626 -14.8303 -30.4102
ltibia 45.8488
lfoot -17.9234 -4.35561
ltoes 15.3792
3002
root 2.37435 16.4313 -22.3017 -178.402 -52.8919 -173.885
lowerback 5.29762 -0.0521534 -5.28024
upperback -2.58548 -0.400296 1.67723
thorax -5.63464 0.0281897 4.76914
lowerneck -3.41237 11.2761 6.42404
upperneck 4.25242 15.43 -13.8834
head 3.42485 7.30187 -4.42571
rclavicle 6.19463e-014 1.51076e-014
rhumerus -54.2205 13.9842 -91.6634
rradius 34.5666
rwrist -21.2819
rhand -25.3559 -42.2827
rfingers 7.12502
rthumb 1.1678 287.741
lclavicle 6.19463e-014 1.51076e-014
lhumerus -50.8463 -23.3993 89.3152
lradius 74.6537
lwrist 34.6574
lhand -13.5986 -22.9007
lfingers 7.12502
lthumb 12.5161 6.7045
rfemur -45.1128 1.83869 6.65303
rtibia 58.2873
rfoot 5.50815 -6.89642
rtoes -17.5904
lfemur -13.3354 -15.0413 -30.1343
ltibia 45.5632
lfoot -16.7008 -4.37018
ltoes 15.3512
3003
root 2.25538 16.5005 -22.5238 -179.058 -54.4665 -173.114
lowerback 5.35889 -0.150547 -4.90686
upperback -2.60705 -0.501562 1.79456
thorax -5.67977 -0.0322756 4.69219
lowerneck -3.57959 11.4595 6.41406
upperneck 4.64598 15.7262 -14.0472
head 3.61391 7.41663 -4.42791
rclavicle 2.62893e-014 -8.34896e-015
rhumerus -55.1658 14.3088 -92.1996
rradius 35.1217
rwrist -22.1552
rhand -24.7657 -42.2071
rfingers 7.12502
rthumb 1.73784 287.82
lclavicle 2.62893e-014 -8.34896e-015
lhumerus -50.738 -23.7629 89.913
lradius 75.8274
lwrist 34.8344
lhand -12.8203 -22.7426
lfingers 7.12502
lthumb 13.2664 6.81521
rfemur -43.7788 3.44079 5.59546
rtibia 53.5362
rfoot 7.62007 -7.2419
rtoes -18.6002
lfemur -12.4646 -14.9914 -29.4801
ltibia 45.5996
lfoot -15.5926 -3.99449
ltoes 14.6199
3004
root 2.13117 16.5703 -22.7433 -179.828 -55.9036 -172.077
lowerback 5.22652 -0.131388 -4.40198
upperback -2.63329 -0.430283 1.85616
thorax -5.63989 -0.01635 4.4618
lowerneck -3.94793 11.605 6.58615
upperneck 5.12986 15.9667 -14.0822
head 3.86165 7.50315 -4.40807
rclavicle -4.5969e-014 -1.23246e-014
rhumerus -55.9537 13.9568 -92.5013
rradius 35.6249
rwrist -22.7924
rhand -24.4653 -41.7784
rfingers 7.12502
rthumb 2.02794 288.252
lclavicle -4.5969e-014 -1.23246e-014
lhumerus -50.6465 -24.3506 90.4714
lradius 77.1752
lwrist 35.039
lhand -12.1742 -22.3659
lfingers 7.12502
lthumb 13.8891 7.15026
rfemur -42.6056 5.24714 4.62743
rtibia 49.1173
rfoot 9.03142 -7.77757
rtoes -20.4797
lfemur -11.8718 -14.6434 -28.6764
ltibia 45.8388
lfoot -14.3246 -3.55191
ltoes 16.3721
3005
root 2.01449 16.6347 -22.9643 -179.867 -57.2869 -171.764
lowerback 4.90098 -0.0844836 -4.43571
upperback -2.61375 -0.359563 1.79079
thorax -5.44098 0.0126639 4.40055
lowerneck -4.19404 11.7733 6.56689
upperneck 5.20954 16.2028 -14.0592
head 3.94765 7.60801 -4.35968
rclavicle -1.02523e-013 -1.43125e-014
rhumerus -56.4376 13.0926 -92.515
rradius 36.078
rwrist -22.6805
rhand -23.8699 -41.213
rfingers 7.12502
rthumb 2.60303 288.823
lclavicle -1.02523e-013 -1.43125e-014
lhumerus -50.508 -24.9848 90.8632
lradius 78.6256
lwrist 35.3427
lhand -11.5927 -21.9785
lfingers 7.12502
lthumb 14.4495 7.49842
rfemur -41.7507 7.02823 3.22718
rtibia 45.2109
rfoot 9.62394 -8.17941
rtoes -22.7139
lfemur -11.6168 -13.7356 -28.1836
ltibia 46.2579
lfoot -12.9715 -3.41147
ltoes 18.4053
3006
root 1.90131 16.6877 -23.1824 -179.204 -58.9055 -172.253
lowerback 4.61753 -0.169456 -4.86302
upperback -2.60745 -0.49769 1.62722
thorax -5.25732 -0.0485304 4.47944
lowerneck -4.25214 11.9446 6.3579
upperneck 5.06029 16.4365 -14.165
head 3.92949 7.7168 -4.33896
rclavicle 2.11209e-014 -1.59028e-015
rhumerus -57.0534 12.7346 -92.6239
rradius 36.8851
rwrist -22.7499
rhand -23.4123 -40.917
rfingers 7.12502
rthumb 3.04491 289.125
lclavicle 2.11209e-014 -1.59028e-015
lhumerus -50.3837 -25.3866 91.149
lradius 79.9989
lwrist 35.5127
lhand -10.8943 -21.6662
lfingers 7.12502
lthumb 15.1223 7.76137
rfemur -40.9344 8.32011 1.46419
rtibia 41.9075
rfoot 10.085 -8.43863
rtoes -26.3678
lfemur -11.5734 -12.7232 -28.1085
ltibia 46.9251
lfoot -11.6923 -2.87771
ltoes 20.1628
3007
root 1.78331 16.7327 -23.3958 -178.349 -60.6422 -172.983
lowerback 4.38988 -0.275011 -5.22547
upperback -2.63623 -0.662819 1.40925
thorax -5.13908 -0.124742 4.46686
lowerneck -4.50344 12.1027 6.16454
upperneck 5.17181 16.6785 -14.3089
head 4.02732 7.80748 -4.31251
rclavicle -3.97321e-014 -1.19271e-014
rhumerus -57.9313 13.0041 -92.9909
rradius 37.9394
rwrist -23.5773
rhand -23.5307 -41.1117
rfingers 7.12502
rthumb 2.93057 288.929
lclavicle -3.97321e-014 -1.19271e-014
lhumerus -50.3368 -25.812 91.5335
lradius 81.2092
lwrist 35.3131
lhand -10.4172 -22.0285
lfingers 7.12502
lthumb 15.5818 7.36384
rfemur -40.0697 9.31518 -0.322468
rtibia 39.1818
rfoot 10.4525 -8.75701
rtoes -30.125
lfemur -11.703 -11.8165 -28.2348
ltibia 47.9406
lfoot -10.5888 -1.20515
ltoes 21.2289
3008
root 1.66747 16.7661 -23.6147 -178.317 -62.2923 -172.8
lowerback 4.16444 -0.335597 -5.17775
upperback -2.68127 -0.735481 1.30987
thorax -5.05045 -0.166679 4.33837
lowerneck -4.52737 12.2589 6.11231
upperneck 5.1556 16.9041 -14.4695
head 4.06047 7.90902 -4.32931
rclavicle 4.52235e-014 2.8625e-014
rhumerus -58.8499 13.2344 -93.4747
rradius 38.8854
rwrist -24.5134
rhand -23.8348 -41.2313
rfingers 7.12502
rthumb 2.63692 288.805
lclavicle 4.52235e-014 2.8625e-014
lhumerus -50.4274 -26.2077 91.9575
lradius 82.3348
lwrist 34.876
lhand -10.4784 -22.5755
lfingers 7.12502
lthumb 15.5229 6.82145
rfemur -39.2191 10.7116 -1.62042
rtibia 36.9484
rfoot 10.4624 -9.9098
rtoes -31.8724
lfemur -12.0357 -10.6774 -27.8754
ltibia 49.365
lfoot -9.58693 0.624227
ltoes 21.0269
3009
root 1.55783 16.7815 -23.8311 -179.051 -64.1145 -171.775
lowerback 4.02069 -0.420632 -4.70294
upperback -2.73822 -0.817514 1.23859
thorax -5.02275 -0.22563 3.99996
lowerneck -4.43833 12.3934 5.87081
upperneck 5.08359 17.0825 -14.2932
head 4.00537 8.00804 -4.23412
rclavicle -9.39755e-014 -8.74653e-015
rhumerus -59.6998 13.2146 -93.9854
rradius 39.7869
rwrist -25.2151
rhand -24.2945 -41.1254
rfingers 7.12502
rthumb 2.19291 288.906
lclavicle -9.39755e-014 -8.74653e-015
lhumerus -50.5275 -26.6223 92.2639
lradius 83.4621
lwrist 34.5808
lhand -10.4707 -22.5244
lfingers 7.12502
lthumb 15.5303 6.87196
rfemur -38.2746 12.3303 -2.58144
rtibia 35.0882
rfoot 10.2808 -12.2739
rtoes -31.8693
lfemur -12.5996 -9.67452 -27.1294
ltibia 51.1806
lfoot -8.70391 1.87931
ltoes 20.8108
3010
root 1.44786 16.7855 -24.0453 -179.377 -66.0645 -171.128
lowerback 3.72159 -0.553499 -4.60801
upperback -2.77782 -0.977546 1.23889
thorax -4.87788 -0.312455 3.95412
lowerneck -4.19442 12.4354 5.71127
upperneck 4.76556 17.1367 -14.6504
head 3.89515 8.0392 -4.33463
rclavicle -1.73937e-015 7.55382e-015
rhumerus -60.4995 13.3885 -94.3003
rradius 40.7397
rwrist -25.5806
rhand -24.5007 -41.0859
rfingers 7.12502
rthumb 1.99379 288.944
lclavicle -1.73937e-015 7.55382e-015
lhumerus -50.6359 -26.8312 92.683
lradius 84.6217
lwrist 34.7156
lhand -10.2124 -22.5686
lfingers 7.12502
lthumb 15.7791 6.80829
rfemur -37.3679 14.0635 -3.83098
rtibia 33.4857
rfoot 10.0551 -15.4395
rtoes -31.3632
lfemur -13.4514 -9.08847 -26.6032
ltibia 53.3219
lfoot -7.91832 2.72585
ltoes 22.8808
3011
root 1.32812 16.7803 -24.2582 -179.138 -67.8893 -171.063
lowerback 3.23611 -0.676924 -4.87406
upperback -2.78416 -1.13463 1.27085
thorax -4.58794 -0.390004 4.13928
lowerneck -3.91394 12.4648 5.66741
upperneck 4.31063 17.1686 -15.3312
head 3.77658 8.05614 -4.55378
rclavicle -6.77856e-014 -1.07344e-014
rhumerus -61.2337 13.7572 -94.5041
rradius 41.5882
rwrist -25.606
rhand -24.4203 -41.0024
rfingers 7.12502
rthumb 2.07142 289.028
lclavicle -6.77856e-014 -1.07344e-014
lhumerus -50.754 -26.7779 93.1798
lradius 85.5983
lwrist 35.3802
lhand -10.221 -23.1695
lfingers 7.12502
lthumb 15.7708 6.20797
rfemur -36.4917 15.5024 -5.08113
rtibia 32.0954
rfoot 10.5096 -17.689
rtoes -33.8104
lfemur -14.5077 -8.43764 -26.3799
ltibia 55.692
lfoot -7.01276 3.86551
ltoes 25.0286
3012
root 1.20838 16.7605 -24.4636 -179.667 -69.6756 -170.268
lowerback 2.88404 -0.67999 -4.60812
upperback -2.72434 -1.11058 1.17095
thorax -4.33235 -0.396793 3.87489
lowerneck -4.46321 12.6112 5.26793
upperneck 4.68772 17.4119 -15.0364
head 3.94405 8.13748 -4.34345
rclavicle 8.49804e-015 0
rhumerus -61.6489 13.8477 -94.7546
rradius 42.172
rwrist -25.576
rhand -24.3095 -40.7927
rfingers 7.12502
rthumb 2.17841 289.239
lclavicle 8.49804e-015 0
lhumerus -50.5895 -27.0408 93.4348
lradius 86.2974
lwrist 36.4847
lhand -9.85113 -23.6041
lfingers 7.12502
lthumb 16.127 5.74489
rfemur -35.4624 16.7371 -5.72501
rtibia 30.9702
rfoot 10.6192 -19.5317
rtoes -34.3523
lfemur -15.6484 -7.77385 -25.9636
ltibia 58.2939
lfoot -6.29766 5.01772
ltoes 25.5049
3013
root 1.09584 16.7221 -24.6702 -181.676 -71.422 -168.099
lowerback 2.75104 -0.616126 -4.01191
upperback -2.64235 -0.988993 1.14077
thorax -4.19016 -0.359878 3.49592
lowerneck -5.08308 12.7875 4.93943
upperneck 5.28561 17.7122 -14.5792
head 4.18447 8.24291 -4.07965
rclavicle 1.15295e-014 -8.74653e-015
rhumerus -62.0637 13.9962 -95.1252
rradius 42.7219
rwrist -25.656
rhand -23.9675 -40.3285
rfingers 7.12502
rthumb 2.50877 289.707
lclavicle 1.15295e-014 -8.74653e-015
lhumerus -50.5856 -27.3593 93.6808
lradius 87.1266
lwrist 38.0452
lhand -8.40663 -24.2425
lfingers 7.12502
lthumb 17.5175 4.98831
rfemur -34.2409 17.8653 -5.58169
rtibia 30.1515
rfoot 9.74888 -21.3192
rtoes -30.251
lfemur -16.7869 -7.34839 -25.1161
ltibia 61.1168
lfoot -6.16206 5.41476
ltoes 26.0656
3014
root 0.985253 16.6625 -24.8764 -183.721 -73.0851 -165.988
lowerback 2.72866 -0.465117 -3.64197
upperback -2.72486 -0.775491 1.02036
thorax -4.28695 -0.263872 3.14986
lowerneck -4.7545 12.7815 5.28484
upperneck 5.29221 17.6992 -14.6529
head 4.16776 8.25963 -4.17126
rclavicle 4.57702e-014 -7.15625e-015
rhumerus -62.9422 13.8939 -95.6096
rradius 43.4763
rwrist -25.4329
rhand -23.7484 -40.1075
rfingers 7.12502
rthumb 2.72037 289.93
lclavicle 4.57702e-014 -7.15625e-015
lhumerus -51.2709 -27.7443 94.1315
lradius 87.9618
lwrist 39.6516
lhand -11.5761 -22.8108
lfingers 7.12502
lthumb 14.4655 6.66497
rfemur -32.9492 17.847 -4.98415
rtibia 29.6794
rfoot 10.5514 -20.7855
rtoes -29.8286
lfemur -18.0261 -6.84885 -24.4424
ltibia 64.0314
lfoot -6.03455 5.24506
ltoes 26.4583
